<svg width="300" height="300" viewBox="0 0 300 300" fill="none" xmlns="http://www.w3.org/2000/svg">
<g clip-path="url(#clip0_nav)">
<path d="M260.549 79.1203C245.753 39.3664 198.787 32.4056 160.244 40.5828C100.71 52.975 46.4121 90.6093 6.87465 136.373C-17.5187 164.18 -39.8154 204.114 -45.4825 235.378C-50.6223 259.09 -47.9985 282.273 -36.6285 299.555H-28.1579C-41.6725 281.9 -40.2707 253.635 -27.9063 226.803C-16.5962 200.188 8.20454 169.141 33.4246 147.801L33.5804 147.669C55.9969 128.111 85.3384 110.143 110.822 100.93C148.431 86.5749 199.685 83.9254 206.083 129.604C209.809 167.154 183.703 208.064 159.561 236.064C139.002 259.596 110.319 283.778 79.0843 299.555H123.474C131.01 295.376 138.199 290.92 144.908 286.344C206.479 245.349 284.559 154.353 260.549 79.1203Z" fill="#231F20"/>
</g>
<defs>
<clipPath id="clip0_nav">
<rect width="300" height="300" fill="white"/>
</clipPath>
</defs>
</svg>
