<svg width="840" height="256" viewBox="0 0 840 256" fill="none" xmlns="http://www.w3.org/2000/svg">
<path d="M21.963 49.4507L19.2438 102.387L14.8512 124.024H17.9888L21.1264 134.947L21.963 207L0 196.497V49.4507H21.963ZM16.9429 130.326C17.3613 125.705 18.3444 120.768 19.8713 115.516C21.3983 110.265 23.5318 104.761 26.2511 99.0262C28.9703 93.2915 32.4216 87.5357 36.6051 81.8009C42.0435 74.3855 47.5866 68.2096 53.2342 63.3151C58.8819 58.4206 64.3413 54.7654 69.6542 52.3917C74.9463 49.9969 80.0082 48.8836 84.8192 49.0096C89.6302 49.1567 93.8554 50.5431 97.4741 53.2109C101.239 55.8788 103.896 59.6809 105.423 64.6595C106.95 69.6381 107.368 75.2678 106.678 81.5698C105.987 87.8718 104.168 94.6569 101.239 101.946C98.3108 109.235 94.1274 116.588 88.6889 124.003C82.5602 132.553 76.0758 139.401 69.2359 144.589C62.396 149.778 55.7443 153.202 49.26 154.883C42.7757 156.563 36.7097 156.395 31.062 154.358C25.4144 152.32 20.708 148.308 16.9429 142.279C16.5246 138.918 16.5246 134.926 16.9429 130.305V130.326ZM24.8915 199.333C26.4184 201.223 27.9663 202.652 29.4932 203.639C31.4385 204.626 33.4675 205.172 35.5592 205.319H20.4988L21.5447 191.245C22.235 194.753 23.3645 197.442 24.8915 199.333ZM21.963 207L21.3355 204.899H52.9205V207H21.963ZM82.7275 111.63C85.3003 105.895 87.1619 100.455 88.2705 95.3501C89.3792 90.2455 89.6302 85.6241 89.0026 81.4858C88.3751 77.3475 86.7436 74.3855 84.0871 72.558C81.577 70.7304 78.2512 70.2472 74.1514 71.0875C70.0308 71.9278 65.6381 73.7553 60.9736 76.5492C56.3091 79.3431 51.6236 82.9142 46.9591 87.2626C42.2946 91.6109 38.0693 96.4424 34.3042 101.757C30.9574 106.526 28.4474 111.315 26.774 116.147C25.1006 120.978 24.2012 125.537 24.0548 129.801C23.9083 134.065 24.4313 137.846 25.6236 141.144C26.8158 144.442 28.5101 146.921 30.7483 148.602C33.4048 150.555 36.5632 151.375 40.2656 151.018C43.9679 150.66 47.7539 149.484 51.6655 147.446C55.577 145.409 59.4048 142.678 63.1699 139.254C66.935 135.83 70.2818 132.07 73.2102 128.015C76.9753 122.827 80.1547 117.365 82.7275 111.63Z" fill="#FEFBF7"/>
<path d="M126 101.192H147.99L147.78 126.765L141.916 144.792H145.058C146.88 139.342 149.162 134.249 151.969 129.49C154.754 124.732 157.623 120.477 160.555 116.704C163.487 112.931 166.272 109.787 168.932 107.271C171.592 104.756 173.686 103.142 175.215 102.45L189.665 97H206V111.463L184.01 121.525V120.058C184.01 115.593 183.131 112.721 181.393 111.463C179.654 110.206 177.414 110.101 174.691 111.149C171.969 112.197 169.079 114.188 166 117.123C162.921 120.058 160.031 123.558 157.309 127.604C154.586 131.649 152.346 135.988 150.607 140.6C148.869 145.212 147.99 149.76 147.99 154.225V206H126V101.192ZM169.351 132.635L168.304 131.167L194.691 112.721L198.67 114.817L169.351 132.635Z" fill="#FEFBF7"/>
<path d="M218.87 129.219C221.444 122.524 225.147 116.771 229.959 111.959C234.771 107.147 240.524 103.444 247.219 100.87C253.914 98.2971 261.383 97 269.605 97C277.827 97 285.254 98.2971 291.886 100.87C298.518 103.444 304.229 107.147 309.041 111.959C313.853 116.771 317.556 122.524 320.13 129.219C322.703 135.914 324 143.383 324 151.605C324 159.827 322.703 167.086 320.13 173.781C317.556 180.476 313.853 186.229 309.041 191.041C304.229 195.853 298.518 199.556 291.886 202.13C285.254 204.703 277.827 206 269.605 206C261.383 206 253.914 204.703 247.219 202.13C240.524 199.556 234.771 195.853 229.959 191.041C225.147 186.229 221.444 180.476 218.87 173.781C216.297 167.086 215 159.701 215 151.605C215 143.508 216.297 135.914 218.87 129.219ZM233.055 154.889C231.57 161.04 231.047 166.773 231.486 172.045C231.904 177.338 233.327 182.045 235.733 186.229C238.139 190.393 241.507 193.656 245.859 196.021C250.211 198.385 254.771 199.368 259.562 198.991C264.353 198.615 269.061 197.129 273.684 194.514C278.308 191.899 282.764 188.259 287.032 183.572C291.3 178.907 295.15 173.384 298.581 167.065C302.012 160.726 304.48 154.471 306.008 148.257C307.535 142.064 308.079 136.29 307.598 130.955C307.117 125.62 305.715 120.892 303.351 116.771C300.987 112.649 297.639 109.427 293.288 107.063C288.936 104.699 284.375 103.716 279.584 104.092C274.793 104.469 270.065 105.933 265.379 108.486C260.692 111.038 256.215 114.72 251.947 119.49C247.658 124.26 243.809 129.826 240.398 136.144C236.967 142.483 234.52 148.717 233.034 154.889H233.055Z" fill="#FEFBF7"/>
<path d="M358.137 199.023C353.641 194.378 351.465 187.88 351.611 179.549L352.025 132.27C352.025 128.25 352.916 124.105 354.718 119.877C356.521 115.649 359.276 112.067 363.006 109.151L362.177 106.235H334V101.861H354.304V93.1135L381.238 50H387.453L387.867 52.7076C384.283 52.9784 381.486 54.7904 379.477 58.1228C377.467 61.4553 376.017 65.5583 375.126 70.4112C374.235 75.2641 373.675 80.5127 373.468 86.1362C373.261 91.7597 373.157 97.0083 373.157 101.861L409 101.653V106.235H373.365V193.92C373.365 197.523 374.546 200.106 376.887 201.626C379.228 203.147 381.383 203.917 383.309 203.917H403.199V206H377.094C368.952 206 362.633 203.667 358.137 199.023Z" fill="#FEFBF7"/>
<path d="M419.87 129.219C422.444 122.524 426.147 116.771 430.959 111.959C435.771 107.147 441.524 103.444 448.219 100.87C454.914 98.2971 462.383 97 470.605 97C478.827 97 486.254 98.2971 492.886 100.87C499.518 103.444 505.229 107.147 510.041 111.959C514.853 116.771 518.556 122.524 521.13 129.219C523.703 135.914 525 143.383 525 151.605C525 159.827 523.703 167.086 521.13 173.781C518.556 180.476 514.853 186.229 510.041 191.041C505.229 195.853 499.518 199.556 492.886 202.13C486.254 204.703 478.827 206 470.605 206C462.383 206 454.914 204.703 448.219 202.13C441.524 199.556 435.771 195.853 430.959 191.041C426.147 186.229 422.444 180.476 419.87 173.781C417.297 167.086 416 159.701 416 151.605C416 143.508 417.297 135.914 419.87 129.219ZM434.055 154.889C432.57 161.04 432.047 166.773 432.486 172.045C432.904 177.338 434.327 182.045 436.733 186.229C439.139 190.393 442.507 193.656 446.859 196.021C451.211 198.385 455.771 199.368 460.562 198.991C465.353 198.615 470.061 197.129 474.684 194.514C479.308 191.899 483.764 188.259 488.032 183.572C492.3 178.907 496.15 173.384 499.581 167.065C503.012 160.726 505.48 154.471 507.008 148.257C508.535 142.064 509.079 136.29 508.598 130.955C508.117 125.62 506.715 120.892 504.351 116.771C501.987 112.649 498.639 109.427 494.288 107.063C489.936 104.699 485.375 103.716 480.584 104.092C475.793 104.469 471.065 105.933 466.379 108.486C461.692 111.038 457.215 114.72 452.947 119.49C448.658 124.26 444.809 129.826 441.398 136.144C437.967 142.483 435.52 148.717 434.034 154.889H434.055Z" fill="#FEFBF7"/>
<path d="M619.584 167.63C616.45 173.154 612.98 177.986 609.156 182.171C604.893 186.857 600.441 190.497 595.802 193.112C591.183 195.728 586.481 197.213 581.696 197.59C576.91 197.966 572.354 196.983 568.007 194.619C563.66 192.255 560.296 188.991 557.892 184.807C555.489 180.643 554.068 175.915 553.65 170.643C553.211 165.35 553.733 159.638 555.217 153.467C556.701 147.316 559.146 141.06 562.573 134.742C565.98 128.403 569.825 122.859 574.109 118.068C578.373 113.298 582.866 109.636 587.526 107.084C592.207 104.511 596.93 103.046 601.716 102.67C606.481 102.293 611.058 103.297 615.384 105.661C619.731 108.026 623.095 111.247 625.457 115.369C627.797 119.49 629.219 124.219 629.699 129.554C629.783 130.621 629.845 131.688 629.845 132.796C629.866 133.047 629.866 133.319 629.866 133.57C629.887 134.198 629.908 134.847 629.908 135.495H646C643.074 123.633 636.972 114.26 627.714 107.356C618.456 100.452 607.066 97 593.545 97C585.332 97 577.871 98.2762 571.184 100.87C564.496 103.444 558.749 107.147 553.942 111.959C549.136 116.771 545.437 122.524 542.866 129.219C540.296 135.914 539 143.299 539 151.395C539 159.492 540.296 167.086 542.866 173.781C545.437 180.476 549.136 186.229 553.942 191.041C558.749 195.853 564.496 199.535 571.184 202.13C577.871 204.703 585.332 206 593.545 206C606.356 206 617.265 202.883 626.251 196.69C635.237 190.476 641.465 178.509 644.955 167.63H619.584Z" fill="#FEFBF7"/>
<path d="M662.87 129.219C665.444 122.524 669.147 116.771 673.959 111.959C678.771 107.147 684.524 103.444 691.219 100.87C697.914 98.2971 705.383 97 713.605 97C721.827 97 729.254 98.2971 735.886 100.87C742.518 103.444 748.229 107.147 753.041 111.959C757.853 116.771 761.556 122.524 764.13 129.219C766.703 135.914 768 143.383 768 151.605C768 159.827 766.703 167.086 764.13 173.781C761.556 180.476 757.853 186.229 753.041 191.041C748.229 195.853 742.518 199.556 735.886 202.13C729.254 204.703 721.827 206 713.605 206C705.383 206 697.914 204.703 691.219 202.13C684.524 199.556 678.771 195.853 673.959 191.041C669.147 186.229 665.444 180.476 662.87 173.781C660.297 167.086 659 159.701 659 151.605C659 143.508 660.297 135.914 662.87 129.219ZM677.055 154.889C675.57 161.04 675.047 166.773 675.486 172.045C675.904 177.338 677.327 182.045 679.733 186.229C682.139 190.393 685.507 193.656 689.859 196.021C694.211 198.385 698.771 199.368 703.562 198.991C708.353 198.615 713.061 197.129 717.684 194.514C722.308 191.899 726.764 188.259 731.032 183.572C735.3 178.907 739.149 173.384 742.581 167.065C746.012 160.726 748.48 154.471 750.008 148.257C751.535 142.064 752.079 136.29 751.598 130.955C751.116 125.62 749.715 120.892 747.351 116.771C744.986 112.649 741.639 109.427 737.287 107.063C732.936 104.699 728.375 103.716 723.584 104.092C718.793 104.469 714.065 105.933 709.378 108.486C704.692 111.038 700.215 114.72 695.947 119.49C691.658 124.26 687.809 129.826 684.398 136.144C680.967 142.483 678.52 148.717 677.034 154.889H677.055Z" fill="#FEFBF7"/>
<path d="M787 49H788.449L809.359 72.236V206L787.621 195.533L787 49ZM808.945 190.3C809.629 193.796 810.746 196.475 812.258 198.359C813.769 200.243 815.301 201.667 816.813 202.651C818.738 203.635 820.746 204.179 822.816 204.325H807.91L808.945 190.3ZM840 206H809.359L808.738 203.907H840V206Z" fill="#FEFBF7"/>
</svg>
