<svg width="840" height="256" viewBox="0 0 840 256" fill="none" xmlns="http://www.w3.org/2000/svg">
<path d="M21.963 49.5308L19.2438 102.467L14.8512 124.104H17.9888L21.1264 135.028L21.963 207.08L0 196.577V49.5308H21.963ZM16.9429 130.406C17.3613 125.785 18.3444 120.848 19.8713 115.596C21.3983 110.345 23.5318 104.841 26.2511 99.1063C28.9703 93.3715 32.4216 87.6157 36.6051 81.8809C42.0435 74.4656 47.5866 68.2897 53.2342 63.3952C58.8819 58.5006 64.3413 54.8455 69.6542 52.4717C74.9463 50.077 80.0082 48.9636 84.8192 49.0897C89.6302 49.2367 93.8554 50.6232 97.4741 53.291C101.239 55.9588 103.896 59.761 105.423 64.7396C106.95 69.7181 107.368 75.3479 106.678 81.6499C105.987 87.9518 104.168 94.737 101.239 102.026C98.3108 109.316 94.1274 116.668 88.6889 124.083C82.5602 132.633 76.0758 139.481 69.2359 144.67C62.396 149.858 55.7443 153.282 49.26 154.963C42.7757 156.643 36.7097 156.475 31.062 154.438C25.4144 152.4 20.708 148.388 16.9429 142.359C16.5246 138.998 16.5246 135.007 16.9429 130.385V130.406ZM24.8915 199.413C26.4184 201.303 27.9663 202.732 29.4932 203.719C31.4385 204.706 33.4675 205.253 35.5592 205.4H20.4988L21.5447 191.325C22.235 194.833 23.3645 197.522 24.8915 199.413ZM21.963 207.08L21.3355 204.979H52.9205V207.08H21.963ZM82.7275 111.71C85.3003 105.975 87.1619 100.535 88.2705 95.4302C89.3792 90.3256 89.6302 85.7041 89.0026 81.5658C88.3751 77.4275 86.7436 74.4656 84.0871 72.638C81.577 70.8105 78.2512 70.3273 74.1514 71.1676C70.0308 72.0079 65.6381 73.8354 60.9736 76.6293C56.3091 79.4232 51.6236 82.9943 46.9591 87.3426C42.2946 91.691 38.0693 96.5225 34.3042 101.837C30.9574 106.606 28.4474 111.395 26.774 116.227C25.1006 121.058 24.2012 125.617 24.0548 129.881C23.9083 134.145 24.4313 137.926 25.6236 141.224C26.8158 144.523 28.5101 147.001 30.7483 148.682C33.4048 150.635 36.5632 151.455 40.2656 151.098C43.9679 150.74 47.7539 149.564 51.6655 147.526C55.577 145.489 59.4048 142.758 63.1699 139.334C66.935 135.91 70.2818 132.15 73.2102 128.095C76.9753 122.907 80.1547 117.445 82.7275 111.71Z" fill="#231F20"/>
<path d="M126 101.272H147.99L147.78 126.845L141.916 144.872H145.058C146.88 139.422 149.162 134.329 151.969 129.57C154.754 124.812 157.623 120.557 160.555 116.784C163.487 113.011 166.272 109.867 168.932 107.351C171.592 104.836 173.686 103.222 175.215 102.53L189.665 97.0801H206V111.544L184.01 121.605V120.138C184.01 115.673 183.131 112.801 181.393 111.544C179.654 110.286 177.414 110.181 174.691 111.229C171.969 112.277 169.079 114.269 166 117.203C162.921 120.138 160.031 123.638 157.309 127.684C154.586 131.729 152.346 136.069 150.607 140.68C148.869 145.292 147.99 149.84 147.99 154.305V206.08H126V101.272ZM169.351 132.715L168.304 131.247L194.691 112.801L198.67 114.897L169.351 132.715Z" fill="#231F20"/>
<path d="M218.87 129.299C221.444 122.604 225.147 116.851 229.959 112.039C234.771 107.227 240.524 103.524 247.219 100.951C253.914 98.3772 261.383 97.0801 269.605 97.0801C277.827 97.0801 285.254 98.3772 291.886 100.951C298.518 103.524 304.229 107.227 309.041 112.039C313.853 116.851 317.556 122.604 320.13 129.299C322.703 135.994 324 143.463 324 151.685C324 159.907 322.703 167.166 320.13 173.861C317.556 180.556 313.853 186.309 309.041 191.121C304.229 195.933 298.518 199.636 291.886 202.21C285.254 204.783 277.827 206.08 269.605 206.08C261.383 206.08 253.914 204.783 247.219 202.21C240.524 199.636 234.771 195.933 229.959 191.121C225.147 186.309 221.444 180.556 218.87 173.861C216.297 167.166 215 159.781 215 151.685C215 143.588 216.297 135.994 218.87 129.299ZM233.055 154.969C231.57 161.12 231.047 166.853 231.486 172.125C231.904 177.418 233.327 182.125 235.733 186.309C238.139 190.473 241.507 193.737 245.859 196.101C250.211 198.465 254.771 199.448 259.562 199.071C264.353 198.695 269.061 197.209 273.684 194.594C278.308 191.979 282.764 188.339 287.032 183.652C291.3 178.987 295.15 173.464 298.581 167.146C302.012 160.806 304.48 154.551 306.008 148.337C307.535 142.145 308.079 136.37 307.598 131.035C307.117 125.7 305.715 120.972 303.351 116.851C300.987 112.729 297.639 109.507 293.288 107.143C288.936 104.779 284.375 103.796 279.584 104.172C274.793 104.549 270.065 106.013 265.379 108.566C260.692 111.118 256.215 114.8 251.947 119.57C247.658 124.341 243.809 129.906 240.398 136.224C236.967 142.563 234.52 148.798 233.034 154.969H233.055Z" fill="#231F20"/>
<path d="M358.137 199.103C353.641 194.458 351.465 187.96 351.611 179.629L352.025 132.35C352.025 128.33 352.916 124.185 354.718 119.957C356.521 115.729 359.276 112.147 363.006 109.231L362.177 106.315H334V101.941H354.304V93.1936L381.238 50.0801H387.453L387.867 52.7877C384.283 53.0584 381.486 54.8705 379.477 58.2029C377.467 61.5354 376.017 65.6384 375.126 70.4913C374.235 75.3442 373.675 80.5928 373.468 86.2163C373.261 91.8398 373.157 97.0884 373.157 101.941L409 101.733V106.315H373.365V194C373.365 197.603 374.546 200.186 376.887 201.706C379.228 203.227 381.383 203.997 383.309 203.997H403.199V206.08H377.094C368.952 206.08 362.633 203.747 358.137 199.103Z" fill="#231F20"/>
<path d="M419.87 129.299C422.444 122.604 426.147 116.851 430.959 112.039C435.771 107.227 441.524 103.524 448.219 100.951C454.914 98.3772 462.383 97.0801 470.605 97.0801C478.827 97.0801 486.254 98.3772 492.886 100.951C499.518 103.524 505.229 107.227 510.041 112.039C514.853 116.851 518.556 122.604 521.13 129.299C523.703 135.994 525 143.463 525 151.685C525 159.907 523.703 167.166 521.13 173.861C518.556 180.556 514.853 186.309 510.041 191.121C505.229 195.933 499.518 199.636 492.886 202.21C486.254 204.783 478.827 206.08 470.605 206.08C462.383 206.08 454.914 204.783 448.219 202.21C441.524 199.636 435.771 195.933 430.959 191.121C426.147 186.309 422.444 180.556 419.87 173.861C417.297 167.166 416 159.781 416 151.685C416 143.588 417.297 135.994 419.87 129.299ZM434.055 154.969C432.57 161.12 432.047 166.853 432.486 172.125C432.904 177.418 434.327 182.125 436.733 186.309C439.139 190.473 442.507 193.737 446.859 196.101C451.211 198.465 455.771 199.448 460.562 199.071C465.353 198.695 470.061 197.209 474.684 194.594C479.308 191.979 483.764 188.339 488.032 183.652C492.3 178.987 496.15 173.464 499.581 167.146C503.012 160.806 505.48 154.551 507.008 148.337C508.535 142.145 509.079 136.37 508.598 131.035C508.117 125.7 506.715 120.972 504.351 116.851C501.987 112.729 498.639 109.507 494.288 107.143C489.936 104.779 485.375 103.796 480.584 104.172C475.793 104.549 471.065 106.013 466.379 108.566C461.692 111.118 457.215 114.8 452.947 119.57C448.658 124.341 444.809 129.906 441.398 136.224C437.967 142.563 435.52 148.798 434.034 154.969H434.055Z" fill="#231F20"/>
<path d="M619.584 167.71C616.45 173.234 612.98 178.066 609.156 182.251C604.893 186.937 600.441 190.577 595.802 193.193C591.183 195.808 586.481 197.293 581.696 197.67C576.91 198.046 572.354 197.063 568.007 194.699C563.66 192.335 560.296 189.071 557.892 184.887C555.489 180.723 554.068 175.995 553.65 170.723C553.211 165.43 553.733 159.718 555.217 153.547C556.701 147.396 559.146 141.14 562.573 134.822C565.98 128.483 569.825 122.939 574.109 118.148C578.373 113.378 582.866 109.717 587.526 107.164C592.207 104.591 596.93 103.126 601.716 102.75C606.481 102.373 611.058 103.377 615.384 105.742C619.731 108.106 623.095 111.327 625.457 115.449C627.797 119.57 629.219 124.299 629.699 129.634C629.783 130.701 629.845 131.768 629.845 132.876C629.866 133.127 629.866 133.399 629.866 133.651C629.887 134.278 629.908 134.927 629.908 135.575H646C643.074 123.713 636.972 114.34 627.714 107.436C618.456 100.532 607.066 97.0801 593.545 97.0801C585.332 97.0801 577.871 98.3563 571.184 100.951C564.496 103.524 558.749 107.227 553.942 112.039C549.136 116.851 545.437 122.604 542.866 129.299C540.296 135.994 539 143.379 539 151.475C539 159.572 540.296 167.166 542.866 173.861C545.437 180.556 549.136 186.309 553.942 191.121C558.749 195.933 564.496 199.615 571.184 202.21C577.871 204.783 585.332 206.08 593.545 206.08C606.356 206.08 617.265 202.963 626.251 196.77C635.237 190.556 641.465 178.589 644.955 167.71H619.584Z" fill="#231F20"/>
<path d="M662.87 129.299C665.444 122.604 669.147 116.851 673.959 112.039C678.771 107.227 684.524 103.524 691.219 100.951C697.914 98.3772 705.383 97.0801 713.605 97.0801C721.827 97.0801 729.254 98.3772 735.886 100.951C742.518 103.524 748.229 107.227 753.041 112.039C757.853 116.851 761.556 122.604 764.13 129.299C766.703 135.994 768 143.463 768 151.685C768 159.907 766.703 167.166 764.13 173.861C761.556 180.556 757.853 186.309 753.041 191.121C748.229 195.933 742.518 199.636 735.886 202.21C729.254 204.783 721.827 206.08 713.605 206.08C705.383 206.08 697.914 204.783 691.219 202.21C684.524 199.636 678.771 195.933 673.959 191.121C669.147 186.309 665.444 180.556 662.87 173.861C660.297 167.166 659 159.781 659 151.685C659 143.588 660.297 135.994 662.87 129.299ZM677.055 154.969C675.57 161.12 675.047 166.853 675.486 172.125C675.904 177.418 677.327 182.125 679.733 186.309C682.139 190.473 685.507 193.737 689.859 196.101C694.211 198.465 698.771 199.448 703.562 199.071C708.353 198.695 713.061 197.209 717.684 194.594C722.308 191.979 726.764 188.339 731.032 183.652C735.3 178.987 739.149 173.464 742.581 167.146C746.012 160.806 748.48 154.551 750.008 148.337C751.535 142.145 752.079 136.37 751.598 131.035C751.116 125.7 749.715 120.972 747.351 116.851C744.986 112.729 741.639 109.507 737.287 107.143C732.936 104.779 728.375 103.796 723.584 104.172C718.793 104.549 714.065 106.013 709.378 108.566C704.692 111.118 700.215 114.8 695.947 119.57C691.658 124.341 687.809 129.906 684.398 136.224C680.967 142.563 678.52 148.798 677.034 154.969H677.055Z" fill="#231F20"/>
<path d="M787 49.0801H788.449L809.359 72.3161V206.08L787.621 195.613L787 49.0801ZM808.945 190.38C809.629 193.876 810.746 196.555 812.258 198.439C813.769 200.323 815.301 201.747 816.813 202.731C818.738 203.715 820.746 204.259 822.816 204.405H807.91L808.945 190.38ZM840 206.08H809.359L808.738 203.987H840V206.08Z" fill="#231F20"/>
</svg>
